<svg version="1" xmlns="http://www.w3.org/2000/svg" width="270.667" height="270.667" viewBox="0 0 203.000000 203.000000"><path d="M92.2 2.4C52.6 10 21.3 35.8 7.7 72.2c-5.2 13.7-6.2 20.2-6.2 38.3.1 13.2.5 18.4 1.9 23.5 4.2 15.1 11.2 27.2 22.5 39.3 23.9 25.3 57.8 33.6 95.1 23.2 37.6-10.5 66.2-40.1 76.7-79.4 2.3-8.3 2.6-11.7 2.7-25.1.1-17.2-1.7-26.4-7.4-38.7-10.2-22-31.6-40.8-55-48.4-8.5-2.8-11.1-3.2-24-3.5-9.6-.2-17 .1-21.8 1zm12 50.8c7 3.3 14.1 9.7 17.9 16.3 1.6 2.7 2.9 5.3 2.9 5.7 0 .5-11.2.8-25 .8H75v24.5c0 14-.4 24.5-.9 24.5s-3.8-1.9-7.2-4.3c-7.4-4.9-13.2-12.6-15.6-20.6-2.4-8.3-1.4-21.1 2.1-27.9 5.1-9.9 13.8-17.5 23.9-20.8 6.8-2.2 20-1.3 26.9 1.8zm22.6 38.5c-.7 12.1-6.7 22.2-17.1 29-7.8 5.1-14 6.8-23.4 6.4L84 127V84h43.3l-.5 7.7zm26.2 26.8V153H84V136.3l8.5-.5c7-.5 9.8-1.2 16.1-4.2 16.4-7.8 27.4-24.8 27.4-42.3V84h17v34.5z"/></svg>